<?xml version="1.0" encoding="utf-8"?>
<!-- Generator: Adobe Illustrator 19.0.1, SVG Export Plug-In . SVG Version: 6.00 Build 0)  -->
<!DOCTYPE svg PUBLIC "-//W3C//DTD SVG 1.1//EN" "http://www.w3.org/Graphics/SVG/1.1/DTD/svg11.dtd">
<svg version="1.1" id="Layer_1" xmlns="http://www.w3.org/2000/svg" xmlns:xlink="http://www.w3.org/1999/xlink" x="0px" y="0px"
	 width="213px" height="170px" viewBox="-93 0 213 170" style="enable-background:new -93 0 213 170;" xml:space="preserve">
<style type="text/css">
	.st0{fill:#E6E7E8;}
	.st1{fill:url(#SVGID_1_);}
</style>
<g>
	<path class="st0" d="M-29,132.2c-0.3,7.9-6.6,14.1-14.4,14.1c-8.2,0-14.3-6.6-14.3-14.7c0-8.1,6.6-14.7,14.7-14.7
		c3.6,0,7.2,1.6,10.2,4.4l-2.3,2.9c-2.3-2-5.1-3.4-7.9-3.4c-5.9,0-10.8,4.8-10.8,10.8c0,6.1,4.6,10.8,10.4,10.8
		c5.2,0,9.3-3.8,10.2-8.8h-11.9v-3.5H-29V132.2z"/>
	<path class="st0" d="M-15.4,130.2h-2.2c-2.4,0-4.4,2-4.4,4.4V146h-3.9v-19.6h3.2v1.6c1.1-1.1,2.7-1.6,4.6-1.6h4.2L-15.4,130.2z"/>
	<path class="st0" d="M6,146H2.6v-2.5c-2.6,2.5-6.6,3.7-10.7,1.9c-3-1.3-5.3-4.1-5.9-7.4c-1.2-6.3,3.7-11.9,9.9-11.9
		c2.6,0,5,1.1,6.7,2.8v-2.5H6V146z M2,137.7c0.9-4-2.1-7.6-6-7.6c-3.4,0-6.1,2.8-6.1,6.1c0,3.8,3.3,6.7,7.2,6.1
		C-0.6,141.9,1.4,140,2,137.7z"/>
	<path class="st0" d="M13.8,125.4v1.1h6.2v3.4h-6.2V146H10v-20.5c0-4.3,3.1-6.8,7-6.8h4.7l-1.6,3.7h-3.1
		C15.2,122.3,13.8,123.7,13.8,125.4z"/>
	<path class="st0" d="M40.8,146h-3.3v-2.5c-2.6,2.5-6.6,3.7-10.7,1.9c-3-1.3-5.3-4.1-5.9-7.4c-1.2-6.3,3.7-11.9,9.9-11.9
		c2.6,0,5,1.1,6.7,2.8v-2.5h3.4V146z M36.8,137.7c0.9-4-2.1-7.6-6-7.6c-3.4,0-6.1,2.8-6.1,6.1c0,3.8,3.3,6.7,7.2,6.1
		C34.3,141.9,36.2,140,36.8,137.7z"/>
	<path class="st0" d="M61.7,134.5V146h-3.9v-11.6c0-2.4-2-4.4-4.4-4.4c-2.5,0-4.4,2-4.4,4.4V146h-3.9v-19.6h3.2v1.7
		c1.4-1.3,3.3-2,5.2-2C58.1,126.2,61.7,129.9,61.7,134.5z"/>
	<path class="st0" d="M84.7,146h-3.3v-2.5c-2.6,2.5-6.6,3.7-10.7,1.9c-3-1.3-5.3-4.1-5.9-7.4c-1.2-6.3,3.7-11.9,9.9-11.9
		c2.6,0,5,1.1,6.7,2.8v-2.5h3.4V146z M80.7,137.7c0.9-4-2.1-7.6-6-7.6c-3.4,0-6.1,2.8-6.1,6.1c0,3.8,3.3,6.7,7.2,6.1
		C78.2,141.9,80.1,140,80.7,137.7z"/>
</g>
<g>
	<path class="st0" d="M-31,160.3c0.3,2.1,1.9,3.5,3.9,3.5c1.5,0,2.7-0.8,3.5-1.6l0.9,1.1c-1.2,1.4-2.9,2-4.4,2
		c-3.2,0-5.4-2.7-5.4-5.6c0-3,2.3-5.3,5.3-5.3c3,0,5.3,2.4,5.3,5.9H-31z M-23.6,159c-0.3-1.9-1.9-3.3-3.7-3.3
		c-1.7,0-3.4,1.2-3.7,3.3H-23.6z"/>
	<path class="st0" d="M-10.9,158.7v6.3h-1.5v-6.3c0-1.6-1.3-2.9-2.9-2.9c-1.6,0-2.9,1.3-2.9,2.9v6.3h-1.5v-10.6h1.3v1.1
		c0.8-0.8,1.9-1.3,3.1-1.3C-12.9,154.3-10.9,156.3-10.9,158.7z"/>
	<path class="st0" d="M-8.4,161.6v-10.5h1.5v3.4h3.7v1.3h-3.7v5.8c0,1.1,0.9,2,2,2h1.7v1.5h-1.7C-6.9,165.1-8.4,163.6-8.4,161.6z"/>
	<path class="st0" d="M-0.5,160.3c0.3,2.1,1.9,3.5,3.9,3.5c1.5,0,2.7-0.8,3.5-1.6l0.9,1.1c-1.2,1.4-2.9,2-4.4,2
		c-3.2,0-5.4-2.7-5.4-5.6c0-3,2.3-5.3,5.3-5.3c3,0,5.3,2.4,5.3,5.9H-0.5z M6.9,159c-0.3-1.9-1.9-3.3-3.7-3.3c-1.7,0-3.4,1.2-3.7,3.3
		H6.9z"/>
	<path class="st0" d="M16.2,155.9h-1.1c-1.6,0-2.9,1-2.9,2.7v6.5h-1.5v-10.6h1.3v1.1c0.5-0.7,1.6-1.1,2.8-1.1h1.4V155.9z"/>
	<path class="st0" d="M19.5,163.5v5.8h-1.5v-14.8h1.3v1.8c1-1.2,2.5-1.9,4.1-1.9c3,0,5.4,2.4,5.4,5.4c0,3-2.4,5.4-5.4,5.4
		C21.9,165.2,20.5,164.6,19.5,163.5z M19.5,159.8c0,2.2,1.8,4,4,4c2.2,0,4-1.8,4-4c0-2.2-1.8-3.9-4-3.9
		C21.3,155.8,19.5,157.6,19.5,159.8z"/>
	<path class="st0" d="M36.7,155.9h-1.1c-1.6,0-2.9,1-2.9,2.7v6.5h-1.5v-10.6h1.3v1.1c0.5-0.7,1.6-1.1,2.8-1.1h1.4V155.9z"/>
	<path class="st0" d="M40.4,152.5c0,0.6-0.4,1-1,1c-0.5,0-1-0.4-1-1c0-0.5,0.5-1,1-1C40,151.5,40.4,152,40.4,152.5z M40.2,165.1
		h-1.5v-10.6h1.5V165.1z"/>
	<path class="st0" d="M48.9,155.2l-0.7,1.1c-0.3-0.2-1.2-0.7-2.2-0.7c-1.1,0-2.1,0.5-2.1,1.4c0,0.9,1.1,1.3,2.1,1.7
		c1.7,0.6,3.2,1.8,3.2,3.4c0,1.7-1.5,3.1-3.4,3.1c-1.1,0-2.4-0.4-3.4-1l0.6-1.3c0.7,0.4,1.7,0.8,2.7,0.8c1.4,0,2-0.9,2-1.7
		c0-0.9-0.8-1.4-2.4-2.1c-1.2-0.5-2.8-1.1-2.8-2.8c0-1.7,1.5-2.8,3.4-2.8C47.2,154.3,48.1,154.8,48.9,155.2z"/>
	<path class="st0" d="M52.5,160.3c0.3,2.1,1.9,3.5,3.9,3.5c1.5,0,2.7-0.8,3.5-1.6l0.9,1.1c-1.2,1.4-2.9,2-4.4,2
		c-3.2,0-5.4-2.7-5.4-5.6c0-3,2.3-5.3,5.3-5.3c3,0,5.3,2.4,5.3,5.9H52.5z M60,159c-0.3-1.9-1.9-3.3-3.7-3.3c-1.7,0-3.4,1.2-3.7,3.3
		H60z"/>
</g>
<linearGradient id="SVGID_1_" gradientUnits="userSpaceOnUse" x1="13.5" y1="138.8107" x2="13.5" y2="35.9585">
	<stop  offset="0" style="stop-color:#FFF100"/>
	<stop  offset="1" style="stop-color:#F05A28"/>
</linearGradient>
<path class="st1" d="M65.2,50.6c-0.2-1.9-0.5-4.1-1.1-6.5c-0.6-2.4-1.6-5-2.9-7.8c-1.4-2.7-3.1-5.6-5.4-8.3
	c-0.9-1.1-1.9-2.1-2.9-3.2c1.6-6.3-1.9-11.8-1.9-11.8c-6.1-0.4-9.9,1.9-11.3,2.9c-0.2-0.1-0.5-0.2-0.7-0.3c-1-0.4-2.1-0.8-3.2-1.2
	c-1.1-0.3-2.2-0.7-3.3-0.9c-1.1-0.3-2.3-0.5-3.5-0.7c-0.2,0-0.4-0.1-0.6-0.1c-2.6-8.4-10.2-12-10.2-12C9.5,6.3,7.8,13.8,7.8,13.8
	s0,0.2-0.1,0.4c-0.5,0.1-0.9,0.3-1.4,0.4c-0.6,0.2-1.3,0.4-1.9,0.7c-0.6,0.3-1.3,0.5-1.9,0.8c-1.3,0.6-2.5,1.2-3.8,1.9
	c-1.2,0.7-2.4,1.4-3.5,2.2C-5,20.1-5.1,20-5.1,20c-11.7-4.5-22.1,0.9-22.1,0.9c-0.9,12.5,4.7,20.3,5.8,21.7
	c-0.3,0.8-0.5,1.5-0.8,2.3c-0.9,2.8-1.5,5.7-1.9,8.7c-0.1,0.4-0.1,0.9-0.2,1.3c-10.8,5.3-14,16.3-14,16.3c9,10.4,19.6,11,19.6,11
	c0,0,0,0,0,0c1.3,2.4,2.9,4.7,4.6,6.8c0.7,0.9,1.5,1.7,2.3,2.6c-3.3,9.4,0.5,17.3,0.5,17.3c10.1,0.4,16.7-4.4,18.1-5.5
	c1,0.3,2,0.6,3,0.9c3.1,0.8,6.3,1.3,9.4,1.4c0.8,0,1.6,0,2.4,0l0.4,0l0.3,0l0.5,0l0.5,0l0,0c4.7,6.8,13.1,7.7,13.1,7.7
	c5.9-6.3,6.3-12.4,6.3-13.8l0,0c0,0,0,0,0-0.1c0-0.1,0-0.2,0-0.2l0,0c0-0.1,0-0.2,0-0.3c1.2-0.9,2.4-1.8,3.6-2.8
	c2.4-2.1,4.4-4.6,6.2-7.2c0.2-0.2,0.3-0.5,0.5-0.7c6.7,0.4,11.4-4.2,11.4-4.2c-1.1-7-5.1-10.4-5.9-11l0,0c0,0,0,0-0.1-0.1
	c0,0-0.1-0.1-0.1-0.1c0,0,0,0,0,0c0,0-0.1-0.1-0.1-0.1c0-0.4,0.1-0.8,0.1-1.3c0.1-0.8,0.1-1.5,0.1-2.3l0-0.6l0-0.3l0-0.1
	c0-0.2,0-0.1,0-0.2l0-0.5l0-0.6c0-0.2,0-0.4,0-0.6c0-0.2,0-0.4-0.1-0.6l-0.1-0.6l-0.1-0.6c-0.1-0.8-0.3-1.5-0.4-2.3
	c-0.7-3-1.9-5.9-3.4-8.4c-1.6-2.6-3.5-4.8-5.7-6.8c-2.2-1.9-4.6-3.5-7.2-4.6c-2.6-1.2-5.2-1.9-7.9-2.2c-1.3-0.2-2.7-0.2-4-0.2
	l-0.5,0l-0.1,0c0,0-0.2,0-0.2,0l-0.2,0l-0.5,0c-0.2,0-0.4,0-0.5,0c-0.7,0.1-1.4,0.2-2,0.3c-2.7,0.5-5.2,1.5-7.4,2.8
	c-2.2,1.3-4.1,3-5.7,4.9c-1.6,1.9-2.8,3.9-3.6,6.1c-0.8,2.1-1.3,4.4-1.4,6.5c0,0.5,0,1.1,0,1.6c0,0.1,0,0.3,0,0.4l0,0.4
	c0,0.3,0,0.5,0.1,0.8c0.1,1.1,0.3,2.1,0.6,3.1c0.6,2,1.5,3.8,2.7,5.4c1.2,1.6,2.5,2.8,4,3.8c1.5,1,3,1.7,4.6,2.2
	c1.6,0.5,3.1,0.7,4.5,0.6c0.2,0,0.4,0,0.5,0c0.1,0,0.2,0,0.3,0c0.1,0,0.2,0,0.3,0c0.2,0,0.3,0,0.5,0c0,0,0.1,0,0.1,0l0.1,0
	c0.1,0,0.2,0,0.3,0c0.2,0,0.4-0.1,0.5-0.1c0.2,0,0.3-0.1,0.5-0.1c0.3-0.1,0.7-0.2,1-0.3c0.6-0.2,1.2-0.5,1.8-0.7
	c0.6-0.3,1.1-0.6,1.5-0.9c0.1-0.1,0.3-0.2,0.4-0.3c0.5-0.4,0.6-1.1,0.2-1.6c-0.4-0.4-1-0.5-1.5-0.3c-0.1,0.1-0.2,0.1-0.4,0.2
	c-0.4,0.2-0.9,0.4-1.3,0.5c-0.5,0.1-1,0.3-1.5,0.4c-0.3,0-0.5,0.1-0.8,0.1c-0.1,0-0.3,0-0.4,0c-0.1,0-0.3,0-0.4,0
	c-0.1,0-0.3,0-0.4,0c-0.2,0-0.3,0-0.5,0c0,0-0.1,0,0,0l-0.1,0l-0.1,0c-0.1,0-0.1,0-0.2,0c-0.1,0-0.3,0-0.4-0.1
	c-1.1-0.2-2.3-0.5-3.4-1c-1.1-0.5-2.2-1.2-3.1-2.1c-1-0.9-1.8-1.9-2.5-3.1c-0.7-1.2-1.1-2.5-1.3-3.8c-0.1-0.7-0.2-1.4-0.1-2.1
	c0-0.2,0-0.4,0-0.6c0,0.1,0,0,0,0l0-0.1l0-0.1c0-0.1,0-0.2,0-0.3c0-0.4,0.1-0.7,0.2-1.1c0.5-3,2-5.9,4.3-8.1
	c0.6-0.6,1.2-1.1,1.9-1.5c0.7-0.5,1.4-0.9,2.1-1.2c0.7-0.3,1.5-0.6,2.3-0.8c0.8-0.2,1.6-0.4,2.4-0.4c0.4,0,0.8-0.1,1.2-0.1
	c0.1,0,0.2,0,0.3,0l0.3,0l0.2,0c0.1,0,0,0,0,0l0.1,0l0.3,0c0.9,0.1,1.8,0.2,2.6,0.4c1.7,0.4,3.4,1,5,1.9c3.2,1.8,5.9,4.5,7.5,7.8
	c0.8,1.6,1.4,3.4,1.7,5.3c0.1,0.5,0.1,0.9,0.2,1.4l0,0.3l0,0.3c0,0.1,0,0.2,0,0.3c0,0.1,0,0.2,0,0.3l0,0.3l0,0.3c0,0.2,0,0.6,0,0.8
	c0,0.5-0.1,1-0.1,1.5c-0.1,0.5-0.1,1-0.2,1.5c-0.1,0.5-0.2,1-0.3,1.5c-0.2,1-0.6,1.9-0.9,2.9c-0.7,1.9-1.7,3.7-2.9,5.3
	c-2.4,3.3-5.7,6-9.4,7.7c-1.9,0.8-3.8,1.5-5.8,1.8c-1,0.2-2,0.3-3,0.3l-0.2,0l-0.2,0l-0.3,0l-0.5,0l-0.3,0c0.1,0,0,0,0,0l-0.1,0
	c-0.5,0-1.1,0-1.6-0.1c-2.2-0.2-4.3-0.6-6.4-1.2c-2.1-0.6-4.1-1.4-6-2.4c-3.8-2-7.2-4.9-9.9-8.2c-1.3-1.7-2.5-3.5-3.5-5.4
	c-1-1.9-1.7-3.9-2.3-5.9c-0.6-2-0.9-4.1-1-6.2l0-0.4l0-0.1l0-0.1l0-0.2l0-0.3l0-0.1l0-0.1l0-0.2l0-0.5l0-0.1c0,0,0,0,0,0l0-0.2
	c0-0.3,0-0.5,0-0.8c0-1,0.1-2.1,0.3-3.2c0.1-1.1,0.3-2.1,0.5-3.2c0.2-1.1,0.5-2.1,0.8-3.2c0.6-2.1,1.3-4.1,2.2-6
	c1.8-3.8,4.1-7.2,6.8-9.9c0.7-0.7,1.4-1.3,2.2-1.9C4.3,31,5,30.4,5.8,29.9c0.8-0.5,1.6-1,2.5-1.4c0.4-0.2,0.8-0.4,1.3-0.6
	c0.2-0.1,0.4-0.2,0.7-0.3c0.2-0.1,0.4-0.2,0.7-0.3c0.9-0.4,1.8-0.7,2.7-1c0.2-0.1,0.5-0.1,0.7-0.2c0.2-0.1,0.5-0.1,0.7-0.2
	c0.5-0.1,0.9-0.2,1.4-0.4c0.2-0.1,0.5-0.1,0.7-0.2c0.2,0,0.5-0.1,0.7-0.1c0.2,0,0.5-0.1,0.7-0.1l0.4-0.1l0.4-0.1
	c0.2,0,0.5-0.1,0.7-0.1c0.3,0,0.5-0.1,0.8-0.1c0.2,0,0.6-0.1,0.8-0.1c0.2,0,0.3,0,0.5-0.1l0.3,0l0.2,0l0.2,0c0.3,0,0.5,0,0.8-0.1
	l0.4,0c0,0,0.1,0,0,0l0.1,0l0.2,0c0.2,0,0.5,0,0.7,0c0.9,0,1.8,0,2.7,0c1.8,0.1,3.6,0.3,5.3,0.6c3.4,0.6,6.7,1.7,9.6,3.2
	c2.9,1.4,5.6,3.2,7.8,5.1c0.1,0.1,0.3,0.2,0.4,0.4c0.1,0.1,0.3,0.2,0.4,0.4c0.3,0.2,0.5,0.5,0.8,0.7c0.3,0.2,0.5,0.5,0.8,0.7
	c0.2,0.3,0.5,0.5,0.7,0.8c1,1,1.9,2.1,2.7,3.1c1.6,2.1,2.9,4.2,3.9,6.2c0.1,0.1,0.1,0.2,0.2,0.4c0.1,0.1,0.1,0.2,0.2,0.4
	c0.1,0.2,0.2,0.5,0.4,0.7c0.1,0.2,0.2,0.5,0.3,0.7c0.1,0.2,0.2,0.5,0.3,0.7c0.4,0.9,0.7,1.8,1,2.7c0.5,1.4,0.8,2.6,1.1,3.6
	c0.1,0.4,0.5,0.7,0.9,0.7c0.5,0,0.8-0.4,0.8-0.9C65.3,53.4,65.3,52.1,65.2,50.6z"/>
</svg>
